<svg width="273" height="66" viewBox="0 0 273 66" fill="none" xmlns="http://www.w3.org/2000/svg">
<g filter="url(#filter0_d_381_912)">
<path d="M7.78656 62.1161L3.22656 55.3961H266.027V0.847656L270.347 6.19609V62.1161H7.78656Z" fill="black"/>
<path d="M24.6929 21.2521L28.385 32.0562H28.5339L32.226 21.2521H34.3894L29.6156 34.5176H27.3032L22.5295 21.2521H24.6929ZM35.6024 34.5176V24.5685H37.5391V34.5176H35.6024ZM36.5805 23.0334C36.2436 23.0334 35.9543 22.9211 35.7125 22.6966C35.475 22.4677 35.3562 22.1956 35.3562 21.8804C35.3562 21.5609 35.475 21.2888 35.7125 21.0643C35.9543 20.8354 36.2436 20.721 36.5805 20.721C36.9173 20.721 37.2044 20.8354 37.4419 21.0643C37.6837 21.2888 37.8047 21.5609 37.8047 21.8804C37.8047 22.1956 37.6837 22.4677 37.4419 22.6966C37.2044 22.9211 36.9173 23.0334 36.5805 23.0334ZM43.8853 34.7184C42.9051 34.7184 42.0609 34.5089 41.3527 34.0901C40.6488 33.6669 40.1048 33.0731 39.7204 32.3088C39.3404 31.5402 39.1504 30.6399 39.1504 29.6078C39.1504 28.5887 39.3404 27.6905 39.7204 26.9133C40.1048 26.136 40.6402 25.5293 41.3268 25.0931C42.0177 24.657 42.8252 24.4389 43.7493 24.4389C44.3107 24.4389 44.8548 24.5318 45.3816 24.7175C45.9084 24.9031 46.3812 25.1946 46.8001 25.5919C47.219 25.9892 47.5493 26.5052 47.7911 27.14C48.0329 27.7704 48.1538 28.5369 48.1538 29.4394V30.126H40.2451V28.6751H46.256C46.256 28.1655 46.1524 27.7143 45.9451 27.3213C45.7378 26.9241 45.4463 26.611 45.0707 26.3821C44.6993 26.1533 44.2632 26.0388 43.7623 26.0388C43.2182 26.0388 42.7432 26.1727 42.3373 26.4404C41.9357 26.7038 41.6248 27.0493 41.4045 27.4768C41.1886 27.9 41.0807 28.3599 41.0807 28.8564V29.99C41.0807 30.655 41.1973 31.2206 41.4304 31.687C41.6679 32.1534 41.9983 32.5096 42.4215 32.7558C42.8446 32.9976 43.3391 33.1185 43.9048 33.1185C44.2718 33.1185 44.6065 33.0667 44.9087 32.963C45.211 32.8551 45.4723 32.6953 45.6925 32.4837C45.9127 32.2721 46.0811 32.0109 46.1977 31.7L48.0308 32.0303C47.884 32.5701 47.6206 33.0429 47.2406 33.4488C46.8649 33.8504 46.392 34.1635 45.822 34.388C45.2563 34.6083 44.6108 34.7184 43.8853 34.7184ZM51.8946 34.5176L48.9669 24.5685H50.9684L52.918 31.8749H53.0152L54.9713 24.5685H56.9728L58.916 31.8425H59.0131L60.9498 24.5685H62.9513L60.0301 34.5176H58.0545L56.0336 27.3343H55.8846L53.8637 34.5176H51.8946ZM68.6775 34.5176V21.2521H76.9036V22.9751H70.679V27.0169H76.3142V28.7334H70.679V34.5176H68.6775ZM84.3413 30.3916V24.5685H86.2844V34.5176H84.3801V32.7946H84.2765C84.0476 33.3258 83.6806 33.7684 83.1754 34.1225C82.6745 34.4722 82.0505 34.6471 81.3034 34.6471C80.6643 34.6471 80.0987 34.5068 79.6064 34.2261C79.1184 33.9411 78.7341 33.5201 78.4534 32.963C78.1771 32.406 78.0389 31.7172 78.0389 30.8968V24.5685H79.9756V30.6636C79.9756 31.3416 80.1634 31.8813 80.5391 32.2829C80.9148 32.6845 81.4027 32.8853 82.003 32.8853C82.3657 32.8853 82.7263 32.7946 83.0847 32.6133C83.4474 32.4319 83.7475 32.1577 83.985 31.7906C84.2268 31.4236 84.3456 30.9572 84.3413 30.3916ZM90.2762 21.2521V34.5176H88.3395V21.2521H90.2762ZM94.2712 21.2521V34.5176H92.3345V21.2521H94.2712ZM105.059 34.5176H100.765V21.2521H105.195C106.495 21.2521 107.611 21.5177 108.544 22.0488C109.477 22.5756 110.192 23.3335 110.688 24.3224C111.189 25.3069 111.439 26.4879 111.439 27.8654C111.439 29.2472 111.187 30.4347 110.682 31.4279C110.181 32.4211 109.455 33.1854 108.505 33.7209C107.555 34.252 106.407 34.5176 105.059 34.5176ZM102.766 32.7687H104.949C105.96 32.7687 106.8 32.5787 107.469 32.1987C108.138 31.8144 108.639 31.2595 108.972 30.5341C109.304 29.8043 109.47 28.9147 109.47 27.8654C109.47 26.8247 109.304 25.9417 108.972 25.2162C108.643 24.4908 108.153 23.9402 107.501 23.5645C106.849 23.1888 106.04 23.001 105.072 23.001H102.766V32.7687ZM117.416 34.7184C116.484 34.7184 115.67 34.5046 114.975 34.0771C114.279 33.6496 113.74 33.0516 113.355 32.2829C112.971 31.5143 112.779 30.6161 112.779 29.5884C112.779 28.5563 112.971 27.6538 113.355 26.8809C113.74 26.1079 114.279 25.5077 114.975 25.0802C115.67 24.6527 116.484 24.4389 117.416 24.4389C118.349 24.4389 119.163 24.6527 119.858 25.0802C120.554 25.5077 121.093 26.1079 121.478 26.8809C121.862 27.6538 122.054 28.5563 122.054 29.5884C122.054 30.6161 121.862 31.5143 121.478 32.2829C121.093 33.0516 120.554 33.6496 119.858 34.0771C119.163 34.5046 118.349 34.7184 117.416 34.7184ZM117.423 33.0926C118.028 33.0926 118.528 32.9328 118.926 32.6133C119.323 32.2937 119.617 31.8684 119.807 31.3372C120.001 30.8061 120.098 30.221 120.098 29.5819C120.098 28.9471 120.001 28.3642 119.807 27.833C119.617 27.2976 119.323 26.8679 118.926 26.5441C118.528 26.2202 118.028 26.0583 117.423 26.0583C116.814 26.0583 116.309 26.2202 115.907 26.5441C115.51 26.8679 115.214 27.2976 115.02 27.833C114.83 28.3642 114.735 28.9471 114.735 29.5819C114.735 30.221 114.83 30.8061 115.02 31.3372C115.214 31.8684 115.51 32.2937 115.907 32.6133C116.309 32.9328 116.814 33.0926 117.423 33.0926ZM127.86 34.7184C126.897 34.7184 126.068 34.5003 125.372 34.0642C124.681 33.6237 124.15 33.017 123.779 32.2441C123.408 31.4711 123.222 30.5859 123.222 29.5884C123.222 28.5779 123.412 27.6862 123.792 26.9133C124.172 26.136 124.707 25.5293 125.398 25.0931C126.089 24.657 126.903 24.4389 127.84 24.4389C128.596 24.4389 129.269 24.5793 129.861 24.86C130.453 25.1363 130.93 25.525 131.293 26.0259C131.66 26.5268 131.878 27.1119 131.947 27.7812H130.062C129.958 27.3149 129.721 26.9133 129.349 26.5764C128.982 26.2396 128.49 26.0712 127.873 26.0712C127.333 26.0712 126.86 26.2137 126.454 26.4987C126.052 26.7794 125.739 27.181 125.515 27.7035C125.29 28.2217 125.178 28.8349 125.178 29.543C125.178 30.2685 125.288 30.8946 125.508 31.4214C125.729 31.9483 126.039 32.3563 126.441 32.6456C126.847 32.935 127.324 33.0796 127.873 33.0796C128.24 33.0796 128.572 33.0127 128.87 32.8788C129.172 32.7406 129.425 32.5442 129.628 32.2894C129.835 32.0346 129.98 31.728 130.062 31.3696H131.947C131.878 32.013 131.668 32.5874 131.318 33.0926C130.969 33.5978 130.5 33.9951 129.913 34.2844C129.33 34.5737 128.646 34.7184 127.86 34.7184ZM139.773 30.3916V24.5685H141.716V34.5176H139.812V32.7946H139.708C139.479 33.3258 139.112 33.7684 138.607 34.1225C138.106 34.4722 137.482 34.6471 136.735 34.6471C136.096 34.6471 135.53 34.5068 135.038 34.2261C134.55 33.9411 134.166 33.5201 133.885 32.963C133.609 32.406 133.471 31.7172 133.471 30.8968V24.5685H135.407V30.6636C135.407 31.3416 135.595 31.8813 135.971 32.2829C136.347 32.6845 136.835 32.8853 137.435 32.8853C137.797 32.8853 138.158 32.7946 138.516 32.6133C138.879 32.4319 139.179 32.1577 139.417 31.7906C139.659 31.4236 139.777 30.9572 139.773 30.3916ZM143.771 34.5176V24.5685H145.63V26.1878H145.753C145.961 25.6394 146.3 25.2119 146.77 24.9053C147.241 24.5944 147.804 24.4389 148.461 24.4389C149.126 24.4389 149.683 24.5944 150.132 24.9053C150.585 25.2162 150.92 25.6437 151.136 26.1878H151.24C151.477 25.6567 151.855 25.2335 152.373 24.9183C152.891 24.5987 153.509 24.4389 154.226 24.4389C155.128 24.4389 155.864 24.7218 156.434 25.2875C157.009 25.8531 157.296 26.706 157.296 27.846V34.5176H155.359V28.0274C155.359 27.3537 155.176 26.8658 154.809 26.5635C154.442 26.2612 154.003 26.1101 153.494 26.1101C152.863 26.1101 152.373 26.3044 152.023 26.693C151.674 27.0774 151.499 27.5718 151.499 28.1763V34.5176H149.568V27.9043C149.568 27.3645 149.4 26.9305 149.063 26.6024C148.726 26.2742 148.288 26.1101 147.748 26.1101C147.381 26.1101 147.042 26.2072 146.731 26.4016C146.425 26.5916 146.177 26.8571 145.987 27.1983C145.801 27.5394 145.708 27.9345 145.708 28.3836V34.5176H143.771ZM163.632 34.7184C162.652 34.7184 161.808 34.5089 161.1 34.0901C160.396 33.6669 159.852 33.0731 159.467 32.3088C159.087 31.5402 158.897 30.6399 158.897 29.6078C158.897 28.5887 159.087 27.6905 159.467 26.9133C159.852 26.136 160.387 25.5293 161.074 25.0931C161.765 24.657 162.572 24.4389 163.496 24.4389C164.058 24.4389 164.602 24.5318 165.129 24.7175C165.655 24.9031 166.128 25.1946 166.547 25.5919C166.966 25.9892 167.296 26.5052 167.538 27.14C167.78 27.7704 167.901 28.5369 167.901 29.4394V30.126H159.992V28.6751H166.003C166.003 28.1655 165.899 27.7143 165.692 27.3213C165.485 26.9241 165.193 26.611 164.818 26.3821C164.446 26.1533 164.01 26.0388 163.509 26.0388C162.965 26.0388 162.49 26.1727 162.084 26.4404C161.683 26.7038 161.372 27.0493 161.152 27.4768C160.936 27.9 160.828 28.3599 160.828 28.8564V29.99C160.828 30.655 160.944 31.2206 161.177 31.687C161.415 32.1534 161.745 32.5096 162.168 32.7558C162.592 32.9976 163.086 33.1185 163.652 33.1185C164.019 33.1185 164.353 33.0667 164.656 32.963C164.958 32.8551 165.219 32.6953 165.439 32.4837C165.66 32.2721 165.828 32.0109 165.945 31.7L167.778 32.0303C167.631 32.5701 167.368 33.0429 166.988 33.4488C166.612 33.8504 166.139 34.1635 165.569 34.388C165.003 34.6083 164.358 34.7184 163.632 34.7184ZM171.439 28.6103V34.5176H169.502V24.5685H171.361V26.1878H171.485C171.713 25.661 172.072 25.2378 172.56 24.9183C173.052 24.5987 173.672 24.4389 174.419 24.4389C175.097 24.4389 175.69 24.5814 176.2 24.8664C176.71 25.1471 177.105 25.566 177.385 26.123C177.666 26.6801 177.806 27.3688 177.806 28.1893V34.5176H175.87V28.4225C175.87 27.7013 175.682 27.1378 175.306 26.7319C174.93 26.3217 174.414 26.1166 173.758 26.1166C173.309 26.1166 172.91 26.2137 172.56 26.408C172.214 26.6024 171.94 26.8874 171.737 27.263C171.539 27.6344 171.439 28.0835 171.439 28.6103ZM184.501 24.5685V26.123H179.066V24.5685H184.501ZM180.524 22.1849H182.46V31.5963C182.46 31.972 182.517 32.2549 182.629 32.4449C182.741 32.6305 182.886 32.7579 183.063 32.827C183.244 32.8918 183.441 32.9242 183.652 32.9242C183.808 32.9242 183.944 32.9134 184.06 32.8918C184.177 32.8702 184.268 32.8529 184.332 32.84L184.682 34.4399C184.57 34.483 184.41 34.5262 184.203 34.5694C183.996 34.6169 183.736 34.6428 183.426 34.6471C182.916 34.6558 182.441 34.5651 182.001 34.3751C181.56 34.1851 181.204 33.8914 180.932 33.4942C180.66 33.0969 180.524 32.5981 180.524 31.9979V22.1849ZM188.991 34.7378C188.361 34.7378 187.791 34.6212 187.281 34.388C186.772 34.1505 186.368 33.8072 186.07 33.3581C185.776 32.9091 185.63 32.3585 185.63 31.7064C185.63 31.1451 185.737 30.683 185.953 30.3203C186.169 29.9576 186.461 29.6704 186.828 29.4588C187.195 29.2472 187.605 29.0875 188.059 28.9795C188.512 28.8716 188.974 28.7895 189.445 28.7334C190.041 28.6643 190.524 28.6081 190.896 28.565C191.267 28.5175 191.537 28.4419 191.705 28.3383C191.874 28.2346 191.958 28.0662 191.958 27.833V27.7877C191.958 27.222 191.798 26.7837 191.479 26.4728C191.163 26.1619 190.693 26.0064 190.066 26.0064C189.414 26.0064 188.901 26.1511 188.525 26.4404C188.154 26.7254 187.897 27.0428 187.754 27.3926L185.934 26.978C186.15 26.3735 186.465 25.8855 186.88 25.5142C187.299 25.1385 187.78 24.8664 188.324 24.698C188.868 24.5253 189.44 24.4389 190.041 24.4389C190.438 24.4389 190.859 24.4864 191.304 24.5814C191.753 24.6721 192.172 24.8405 192.56 25.0867C192.953 25.3328 193.275 25.6847 193.525 26.1425C193.776 26.5959 193.901 27.1853 193.901 27.9108V34.5176H192.01V33.1574H191.932C191.807 33.4078 191.619 33.6539 191.368 33.8958C191.118 34.1376 190.796 34.3384 190.403 34.4981C190.01 34.6579 189.54 34.7378 188.991 34.7378ZM189.412 33.1833C189.948 33.1833 190.405 33.0775 190.785 32.8659C191.17 32.6543 191.461 32.3779 191.66 32.0368C191.863 31.6913 191.964 31.3221 191.964 30.9292V29.6467C191.895 29.7158 191.761 29.7805 191.563 29.841C191.368 29.8971 191.146 29.9468 190.896 29.99C190.645 30.0288 190.401 30.0655 190.164 30.1001C189.926 30.1303 189.727 30.1562 189.568 30.1778C189.192 30.2253 188.849 30.3052 188.538 30.4175C188.231 30.5297 187.985 30.6917 187.799 30.9033C187.618 31.1105 187.527 31.3869 187.527 31.7324C187.527 32.2117 187.704 32.5744 188.059 32.8205C188.413 33.0624 188.864 33.1833 189.412 33.1833ZM200.578 24.5685V26.123H195.143V24.5685H200.578ZM196.601 22.1849H198.537V31.5963C198.537 31.972 198.593 32.2549 198.706 32.4449C198.818 32.6305 198.963 32.7579 199.14 32.827C199.321 32.8918 199.517 32.9242 199.729 32.9242C199.885 32.9242 200.021 32.9134 200.137 32.8918C200.254 32.8702 200.344 32.8529 200.409 32.84L200.759 34.4399C200.647 34.483 200.487 34.5262 200.28 34.5694C200.072 34.6169 199.813 34.6428 199.502 34.6471C198.993 34.6558 198.518 34.5651 198.077 34.3751C197.637 34.1851 197.281 33.8914 197.009 33.4942C196.737 33.0969 196.601 32.5981 196.601 31.9979V22.1849ZM202.173 34.5176V24.5685H204.109V34.5176H202.173ZM203.151 23.0334C202.814 23.0334 202.525 22.9211 202.283 22.6966C202.045 22.4677 201.927 22.1956 201.927 21.8804C201.927 21.5609 202.045 21.2888 202.283 21.0643C202.525 20.8354 202.814 20.721 203.151 20.721C203.488 20.721 203.775 20.8354 204.012 21.0643C204.254 21.2888 204.375 21.5609 204.375 21.8804C204.375 22.1956 204.254 22.4677 204.012 22.6966C203.775 22.9211 203.488 23.0334 203.151 23.0334ZM210.359 34.7184C209.426 34.7184 208.612 34.5046 207.917 34.0771C207.221 33.6496 206.682 33.0516 206.297 32.2829C205.913 31.5143 205.721 30.6161 205.721 29.5884C205.721 28.5563 205.913 27.6538 206.297 26.8809C206.682 26.1079 207.221 25.5077 207.917 25.0802C208.612 24.6527 209.426 24.4389 210.359 24.4389C211.291 24.4389 212.105 24.6527 212.8 25.0802C213.496 25.5077 214.035 26.1079 214.42 26.8809C214.804 27.6538 214.996 28.5563 214.996 29.5884C214.996 30.6161 214.804 31.5143 214.42 32.2829C214.035 33.0516 213.496 33.6496 212.8 34.0771C212.105 34.5046 211.291 34.7184 210.359 34.7184ZM210.365 33.0926C210.97 33.0926 211.47 32.9328 211.868 32.6133C212.265 32.2937 212.559 31.8684 212.749 31.3372C212.943 30.8061 213.04 30.221 213.04 29.5819C213.04 28.9471 212.943 28.3642 212.749 27.833C212.559 27.2976 212.265 26.8679 211.868 26.5441C211.47 26.2202 210.97 26.0583 210.365 26.0583C209.756 26.0583 209.251 26.2202 208.849 26.5441C208.452 26.8679 208.156 27.2976 207.962 27.833C207.772 28.3642 207.677 28.9471 207.677 29.5819C207.677 30.221 207.772 30.8061 207.962 31.3372C208.156 31.8684 208.452 32.2937 208.849 32.6133C209.251 32.9328 209.756 33.0926 210.365 33.0926ZM218.548 28.6103V34.5176H216.611V24.5685H218.47V26.1878H218.593C218.822 25.661 219.18 25.2378 219.668 24.9183C220.16 24.5987 220.78 24.4389 221.527 24.4389C222.205 24.4389 222.799 24.5814 223.308 24.8664C223.818 25.1471 224.213 25.566 224.494 26.123C224.774 26.6801 224.915 27.3688 224.915 28.1893V34.5176H222.978V28.4225C222.978 27.7013 222.79 27.1378 222.414 26.7319C222.039 26.3217 221.523 26.1166 220.866 26.1166C220.417 26.1166 220.018 26.2137 219.668 26.408C219.323 26.6024 219.048 26.8874 218.846 27.263C218.647 27.6344 218.548 28.0835 218.548 28.6103ZM239.51 34.7572L238.344 33.6043L242.392 29.556H232.223V27.8719H242.392L238.344 23.8301L239.51 22.6706L245.553 28.7139L239.51 34.7572Z" fill="black"/>
<path d="M266.024 0.847656L270.344 6.19609V62.1161L266.024 55.3961L2.98438 55.3961V0.847656H266.024Z" fill="#A9A9A9"/>
<path d="M2.98438 0.847656H266.024V55.3961L2.98438 55.3961V0.847656Z" fill="white" stroke="black" stroke-width="0.24"/>
</g>
<defs>
<filter id="filter0_d_381_912" x="0.947188" y="0.728516" width="271.317" height="65.2267" filterUnits="userSpaceOnUse" color-interpolation-filters="sRGB">
<feFlood flood-opacity="0" result="BackgroundImageFix"/>
<feColorMatrix in="SourceAlpha" type="matrix" values="0 0 0 0 0 0 0 0 0 0 0 0 0 0 0 0 0 0 127 0" result="hardAlpha"/>
<feOffset dy="1.92"/>
<feGaussianBlur stdDeviation="0.96"/>
<feComposite in2="hardAlpha" operator="out"/>
<feColorMatrix type="matrix" values="0 0 0 0 0 0 0 0 0 0 0 0 0 0 0 0 0 0 0.25 0"/>
<feBlend mode="normal" in2="BackgroundImageFix" result="effect1_dropShadow_381_912"/>
<feBlend mode="normal" in="SourceGraphic" in2="effect1_dropShadow_381_912" result="shape"/>
</filter>
</defs>
</svg>
